PathFileType	4	(X/Y/Z)	2014001\dynamic\2014001_C3_02.trc
DataRate	CameraRate	NumFrames	NumMarkers	Units	OrigDataRate	OrigDataStartFrame	OrigNumFrames
100.000000	100.000000	4	52	mm	100.000000	116	187
Frame#	Time	L_IAS			L_IPS			R_IPS			R_IAS			L_FTC			L_FLE			L_FME			L_FAX			L_TTC			L_FAL			L_TAM			L_FCC			L_FM1			L_FM2			L_FM5			R_FTC			R_FLE			R_FME			R_FAX			R_TTC			R_FAL			R_TAM			R_FCC			R_FM1			R_FM2			R_FM5			CV7			TV10			SXS			SJN			L_SIA			L_SRS			L_SAA			L_SAE			L_HLE			L_HME			L_UOA			L_RSP			L_UHE			L_HM2			L_HM5			R_SIA			R_SRS			R_SAA			R_SAE			R_HLE			R_HME			R_UOA			R_RSP			R_UHE			R_HM2			R_HM5			
		X1	Y1	Z1	X2	Y2	Z2	X3	Y3	Z3	X4	Y4	Z4	X5	Y5	Z5	X6	Y6	Z6	X7	Y7	Z7	X8	Y8	Z8	X9	Y9	Z9	X10	Y10	Z10	X11	Y11	Z11	X12	Y12	Z12	X13	Y13	Z13	X14	Y14	Z14	X15	Y15	Z15	X16	Y16	Z16	X17	Y17	Z17	X18	Y18	Z18	X19	Y19	Z19	X20	Y20	Z20	X21	Y21	Z21	X22	Y22	Z22	X23	Y23	Z23	X24	Y24	Z24	X25	Y25	Z25	X26	Y26	Z26	X27	Y27	Z27	X28	Y28	Z28	X29	Y29	Z29	X30	Y30	Z30	X31	Y31	Z31	X32	Y32	Z32	X33	Y33	Z33	X34	Y34	Z34	X35	Y35	Z35	X36	Y36	Z36	X37	Y37	Z37	X38	Y38	Z38	X39	Y39	Z39	X40	Y40	Z40	X41	Y41	Z41	X42	Y42	Z42	X43	Y43	Z43	X44	Y44	Z44	X45	Y45	Z45	X46	Y46	Z46	X47	Y47	Z47	X48	Y48	Z48	X49	Y49	Z49	X50	Y50	Z50	X51	Y51	Z51	X52	Y52	Z52	

117	1.16	64.25717926025393	854.6270141601567	-41.07307434082033	151.3907165527344	900.6154785156255	128.3968505859376	239.9049835205079	894.0982055664067	126.0027008056641	302.1158447265626	863.6713256835942	-54.92301177978518	10.07239818572998	781.8988647460942	50.32930374145511	67.631950378418	436.5520629882815	141.0283966064454	178.2776184082032	422.2696228027346	114.616928100586	67.7659606933594	381.7800598144532	176.2247924804688	112.4524383544922	346.1546020507814	119.9235305786133	128.533187866211	76.77498626708987	280.6649475097657	214.5892333984376	88.13031768798831	253.9468841552736	177.8211517333985	47.25938034057619	327.8013916015626	200.1224060058595	26.66959381103517	152.4431304931641	138.3164825439454	34.69212341308595	141.3597869873047	93.14149475097659	22.79740142822266	197.4798278808595	368.5700683593751	765.495056152344	29.38230895996095	346.724334716797	438.8923950195315	-113.6802673339844	226.0407714843751	431.7654724121096	-141.158187866211	350.5650024414064	376.2357482910157	-121.5328750610352	307.4458312988282	393.4927978515627	-188.2220611572266	316.7063293457032	78.00352478027347	-237.4917297363282	239.4096679687501	113.0860595703126	-271.5656738281251	254.4986724853517	25.09354972839357	-223.6370544433595	268.0024719238282	109.5997924804688	-390.3625183105471	325.4563598632814	112.3477935791016	-379.0355529785157	355.7581787109376	68.45212554931643	-341.2748107910157	203.1400604248048	1365.616577148438	82.80666351318362	184.3903045654297	1133.987060546875	146.4936676025391	193.0596771240236	1136.280395507813	-86.87025451660159	204.4271087646486	1299.676513671875	-47.28466415405275	87.32971954345706	1179.60205078125	139.3347778320313	107.7968368530274	1309.274536132813	120.0358581542969	4.242782592773439	1317.226318359375	39.105525970459	26.73542404174806	1327.35791015625	0.767663955688477	-80.68466949462893	1054.241333007813	-26.62801361083986	-12.98117923736573	1006.135620117188	0.1969646811485292	-64.76698303222659	1004.543395996094	-4.362425327301027	-0.5726575255393984	898.658325195313	-211.925750732422	-72.93636322021487	871.294799804688	-189.1159210205079	6.660612583160404	850.1829223632817	-282.4180603027345	-67.04190063476565	802.6881713867192	-228.5889892578126	286.4342041015626	1170.19091796875	165.6981811523438	276.3178100585939	1293.378051757813	133.6704406738282	385.4811096191409	1283.727905273438	72.08644104003909	383.0091247558595	1287.184204101563	21.50461769104005	429.3106994628909	996.085083007813	122.7380828857422	347.0379333496095	984.9606323242192	132.7847747802735	390.7890930175784	980.342163085938	148.1024475097657	421.7069396972659	772.1264038085942	65.73147583007815	466.8885192871096	782.745971679688	133.3045806884766	440.0711364746096	678.1505126953127	62.31412887573245	462.8796997070315	706.7093505859377	157.2136230468751	
118	1.17	64.56486511230472	853.1238403320317	-51.27441787719729	153.1396636962891	899.0911254882817	117.7150650024415	241.7072753906251	892.1230468750005	114.7608108520508	302.4537963867189	861.5065307617192	-66.62217712402347	10.47289371490479	781.035522460938	40.51561737060548	67.74165344238284	436.5063171386721	134.2976074218751	178.2639617919922	421.5787658691409	107.5578079223633	67.80253601074222	382.1716918945314	170.2262878417969	112.1936492919922	345.582489013672	114.4592437744141	127.9775695800782	78.90892028808597	279.8646240234376	214.1257629394532	89.66126251220706	253.0686950683595	177.2557220458985	50.07429885864261	327.4528198242189	199.844451904297	26.93405532836915	152.3733825683594	138.0716094970704	34.72157669067384	141.1565704345704	92.97489166259768	22.89454078674317	197.3277130126954	369.2682495117189	763.1163330078127	17.45987129211426	345.9210205078126	436.8756103515627	-125.2930984497071	225.1586303710939	430.2476501464846	-151.9358673095704	349.5357971191407	374.2045898437501	-133.6595153808594	306.1251220703126	392.3370361328127	-200.0697479248048	314.5015258789064	77.18337249755862	-252.9033203125001	237.1529388427736	112.9278259277344	-286.362762451172	252.1317596435548	24.40468406677248	-239.2347412109376	264.8618774414064	110.571891784668	-405.393493652344	322.3982849121095	112.7154922485352	-394.5891113281252	352.6143798828126	68.05731964111331	-357.4336547851564	204.4598236083986	1363.780517578125	71.69429016113284	185.9844360351563	1132.296752929688	135.6533813476563	194.0031585693361	1134.274780273438	-97.80934143066412	205.5954895019532	1297.717163085938	-58.39688491821292	88.96733093261722	1177.883178710938	128.7655334472657	109.2568588256837	1307.599243164063	109.1406173706055	5.524661064147951	1315.180541992188	28.40040016174318	27.90556716918947	1325.30029296875	-10.01187515258789	-79.58732604980472	1052.078979492188	-36.36621856689455	-11.77367687225342	1004.049987792969	-9.749237060546879	-63.51408004760745	1002.477600097657	-14.11153984069825	-0.2282872051000596	896.282348632813	-221.6856079101564	-72.41123199462893	868.8314819335942	-198.5896301269532	6.746398925781254	847.7064819335942	-292.1191406250001	-66.69163513183597	800.2021484375005	-238.0133361816407	287.8282165527345	1168.315673828125	154.6999206542969	277.7440490722657	1291.637084960938	122.5111618041993	386.8296813964846	1281.730590820313	60.75863265991214	384.293151855469	1285.109375	10.16556549072266	430.2490234375002	994.046752929688	111.6751785278321	348.0478515625001	983.1023559570317	121.910514831543	391.7668457031252	978.479125976563	137.1508789062501	422.2039489746096	769.8953247070317	55.61824035644534	467.5313720703127	780.7189331054692	123.0143203735352	440.3818359375002	675.8839111328127	52.50777435302737	463.4026184082034	704.7945556640627	147.2550354003907	
119	1.18	64.91262054443362	851.7265625000005	-61.762565612793	154.9404296875001	897.6863403320317	106.7606277465821	243.5895843505861	890.2744750976567	103.2433242797852	302.8599548339845	859.5596313476567	-78.6289978027344	11.04080772399903	780.1920776367192	30.5227394104004	67.83624267578128	436.5086975097659	127.1009140014649	178.2256164550782	420.9206848144534	100.0245361328126	67.82598876953128	382.6192626953126	163.8034667968751	111.9147338867188	345.0517883300782	108.5991897583008	127.3227920532227	81.3688888549805	279.0126037597657	213.5603790283204	91.40752410888675	252.0911712646486	176.5847320556641	53.20777511596683	327.0411987304689	199.4921875000001	27.21990776062013	152.2213745117188	137.7759704589844	34.75131607055665	140.8852081298829	92.79133605957034	22.98335647583009	197.1087036132814	370.0611267089845	760.9799804687502	5.085788249969484	345.1856384277345	435.1636962890627	-137.4179077148438	224.4119110107423	429.0003662109377	-163.1325836181641	348.5841674804689	372.3742065429689	-145.9305877685547	304.7809143066407	391.0116882324221	-212.0932617187501	312.275848388672	75.89953613281253	-265.8931579589845	234.8089752197267	111.9595260620118	-298.9967346191407	249.8094940185548	23.4557113647461	-251.9024963378907	261.6850585937501	109.6269149780274	-418.1253662109377	319.2951660156251	111.3313522338868	-407.8471374511721	349.4538574218751	66.40252685546878	-370.9376525878907	205.8977355957032	1362.011108398438	60.4998588562012	187.6905670166016	1130.639526367188	124.6429519653321	195.0152587890626	1132.394897460938	-108.8962173461915	206.8366699218751	1295.861694335938	-69.59714508056643	90.74210357666018	1176.226196289063	118.113998413086	110.8408126831055	1305.992919921875	98.18988037109381	6.905306816101078	1313.20361328125	17.67021751403809	29.15004730224611	1323.314086914063	-20.82397842407227	-78.33459472656253	1049.9287109375	-45.96324539184572	-10.39634037017823	1002.031860351563	-19.53771400451661	-62.08800888061526	1000.489440917969	-23.65381813049317	0.1294278055429459	893.537231445313	-231.0830078125001	-71.91749572753909	866.1054687500005	-207.6236572265626	6.799706935882572	844.6425781250005	-301.2852478027345	-66.43936157226565	797.3445434570317	-246.8052520751954	289.3765563964845	1166.50927734375	143.5491638183594	279.3160705566407	1289.956909179688	111.2227172851563	388.3010864257815	1279.804931640625	49.24015808105472	385.6728210449221	1283.113525390625	-1.364112257957459	431.2948303222659	992.0300903320317	100.2968063354493	349.1626281738282	981.2724609375005	110.7505493164063	392.8663330078127	976.6398925781255	125.8834457397462	422.7138366699221	767.6998291015627	45.11079025268556	468.2399597167971	778.6924438476567	112.295524597168	440.7445983886721	673.6900024414065	42.20648193359376	464.0307312011721	702.8798828125002	136.8097686767579	
120	1.19	65.31525421142581	850.441772460938	-72.58409118652347	156.7652130126954	896.4267578125005	95.50239562988284	245.5251617431642	888.5989379882817	91.42872619628909	303.342254638672	857.8806152343755	-90.95935058593753	11.77821254730225	779.3715209960942	20.32062339782716	67.89697265625003	436.5712585449221	119.4478454589844	178.1508178710938	420.2954406738284	92.01873016357425	67.8228454589844	383.1430664062501	156.9658508300782	111.5936431884766	344.5753479003907	102.3396224975587	126.5619125366212	84.16754150390628	278.0846252441407	212.868865966797	93.39125823974612	250.9603881835939	175.8161926269532	56.68030166625979	326.5250244140626	199.0684204101564	27.51580619812013	151.9819488525391	137.4275512695313	34.76608657836915	140.5501098632813	92.59839630126956	23.04950714111329	196.8336334228517	370.9542236328126	759.1518554687502	-7.74513149261475	344.5299072265626	433.7863769531252	-150.0271759033204	223.8086090087892	428.0319519042971	-174.6917114257813	347.7390747070314	370.7740478515626	-158.3767852783204	303.4146728515626	389.567810058594	-224.3070373535157	310.1094055175782	74.18109893798831	-276.6729125976564	232.4440460205079	110.2027893066407	-309.6346435546876	247.6333923339845	22.27160644531251	-261.8383178710939	258.4756469726564	106.7891235351563	-428.7462463378909	316.1612854003907	108.2239532470704	-419.0155944824221	346.340301513672	63.53876495361331	-381.9974975585939	207.4514617919923	1360.334228515625	49.23199081420901	189.5036621093751	1129.0302734375	113.4487762451172	196.1031188964845	1130.685180664063	-120.1423873901368	208.1480712890626	1294.1474609375	-80.88087463378909	92.65786743164065	1174.642700195313	107.3712234497071	112.5475158691407	1304.471069335938	87.18997192382815	8.383087158203129	1311.3203125	6.919672012329105	30.46854209899904	1321.427001953125	-31.66184997558595	-76.92474365234378	1047.822509765625	-55.42381286621097	-8.853987693786625	1000.111572265625	-29.16987800598146	-60.49240875244143	998.6110229492192	-32.98741912841798	0.4912949502468111	890.4337768554692	-240.0911254882814	-71.46002960205081	863.1416015625005	-216.2021484375001	6.808029651641849	841.020141601563	-309.9092712402345	-66.28629302978518	794.1388549804692	-254.9465637207032	291.0812377929689	1164.792602539063	132.2339477539063	281.033172607422	1288.358520507813	99.80857086181646	389.8943481445315	1277.986938476563	37.53282546997072	387.1481628417971	1281.237426757813	-13.08119583129884	432.4463500976565	990.0722045898442	88.59863281250003	350.3758239746095	979.505493164063	99.29126739501959	394.0812683105471	974.8586425781255	114.2915344238282	423.2366638183596	765.5769042968752	34.1937599182129	469.0147399902346	776.7038574218755	101.1387405395508	441.153747558594	671.5999145507815	31.40460586547853	464.7621154785159	701.001159667969	125.8728713989258	
